<svg width="24" height="24" fill="none" xmlns="http://www.w3.org/2000/svg"><path d="M11 7a1 1 0 1 0 2 0 1 1 0 0 0-2 0Z" fill="#002F34"/><path fill-rule="evenodd" clip-rule="evenodd" d="M8.36 4.18a4.54 4.54 0 0 1 7.9 4.32l-3.32 8.85h-1.88L7.75 8.5a4.54 4.54 0 0 1 .61-4.32Zm5.68 1.2A2.54 2.54 0 0 0 9.62 7.8L12 14.15l2.38-6.35c.3-.81.18-1.73-.34-2.42Z" fill="#002F34"/><path d="M3 17c0-.22.13-.58.7-1.03a8.02 8.02 0 0 1 2.59-1.21l-.58-1.92c-1.28.39-2.4.9-3.24 1.55C1.65 15.04 1 15.91 1 17c0 .92.47 1.69 1.1 2.28a7.8 7.8 0 0 0 2.46 1.48A20.7 20.7 0 0 0 12 22c2.86 0 5.49-.46 7.44-1.24a7.8 7.8 0 0 0 2.46-1.48c.63-.6 1.1-1.36 1.1-2.28 0-1.09-.65-1.96-1.47-2.6a9.96 9.96 0 0 0-3.24-1.56l-.58 1.92c1.15.34 2.02.77 2.58 1.21.58.45.71.8.71 1.03 0 .19-.1.47-.47.83-.39.36-1 .74-1.83 1.07-1.66.67-4.03 1.1-6.7 1.1s-5.04-.43-6.7-1.1a5.85 5.85 0 0 1-1.83-1.07C3.1 17.47 3 17.19 3 17Z" fill="#002F34"/></svg>