<svg width="100%" height="100%" viewBox="0 0 149 148" fill="none" xmlns="http://www.w3.org/2000/svg">
  <path fill="#FFF6D9"
    d="M120.75 64.09c0 31.017-25.144 56.161-56.161 56.161-31.017 0-56.16-25.144-56.16-56.16 0-31.017 25.143-56.161 56.16-56.161 31.017 0 56.161 25.144 56.161 56.16" />
  <path fill="#FFCE32"
    d="M64.59 107.037c-23.68 0-42.947-19.265-42.947-42.947 0-23.681 19.266-42.946 42.946-42.946s42.947 19.265 42.947 42.947c0 23.681-19.267 42.946-42.947 42.946Zm67.585 15.295v.001l-23.527-23.527c7.553-9.565 12.102-21.609 12.102-34.716 0-30.967-25.193-56.16-56.161-56.16S8.429 33.123 8.429 64.09c0 30.968 25.192 56.161 56.16 56.161 13.106 0 25.15-4.548 34.716-12.102l23.527 23.527h-.001l8.397 8.397h9.343v-9.344l-8.396-8.397Z" />
  <path fill="#002F34"
    d="M76.864 40.32c-7.298 0-13.214 5.916-13.214 13.215 0 7.298 5.916 13.214 13.214 13.214S90.08 60.833 90.08 53.535c0-7.299-5.917-13.215-13.215-13.215m0 9.25a3.969 3.969 0 0 1 3.964 3.965 3.969 3.969 0 0 1-3.964 3.964 3.969 3.969 0 0 1-3.964-3.964 3.969 3.969 0 0 1 3.964-3.964M54.4 49.35l-9.472 9.472h-3.742v-3.743l9.472-9.472H54.4v3.743Z" />
  <path fill="#002F34"
    d="m41.185 49.35 9.473 9.472H54.4v-3.743l-9.472-9.472h-3.742v3.743ZM83.05 88.614c-6.01-6.18-12.233-9.312-18.502-9.312l-.345.003c-9.321.171-15.854 7.283-15.92 7.355l-3.935-3.528c.323-.361 8.052-8.864 19.69-9.11 7.947-.168 15.601 3.503 22.802 10.907l-3.79 3.685Z" />
</svg>
