<svg width="24" height="24" fill="none" xmlns="http://www.w3.org/2000/svg"><path d="M12 8.67a3.33 3.33 0 1 0 0 6.66 3.33 3.33 0 0 0 0-6.66Zm0 5a1.67 1.67 0 1 1 0-3.34 1.67 1.67 0 0 1 0 3.34Z" fill="#002F34"/><path d="m19.75 13.58-.37-.2c.17-.92.17-1.85 0-2.75l.37-.22a2.5 2.5 0 0 0-2.5-4.33l-.37.21c-.7-.6-1.5-1.06-2.38-1.36V4.5a2.5 2.5 0 0 0-5 0v.43c-.87.3-1.67.77-2.37 1.37l-.38-.22a2.5 2.5 0 0 0-2.5 4.34l.37.21c-.16.9-.16 1.84 0 2.74l-.37.22a2.5 2.5 0 0 0 2.5 4.33l.38-.21c.7.6 1.5 1.06 2.37 1.36v.43a2.5 2.5 0 0 0 5 0v-.43c.87-.3 1.68-.77 2.38-1.37l.37.22a2.5 2.5 0 0 0 2.5-4.34Zm-2.12-3.14c.28 1.02.28 2.1 0 3.12a.83.83 0 0 0 .38.95l.9.52a.83.83 0 1 1-.83 1.44l-.9-.52a.83.83 0 0 0-1.02.14 5.82 5.82 0 0 1-2.7 1.56.83.83 0 0 0-.63.8v1.05a.83.83 0 0 1-1.66 0v-1.04a.83.83 0 0 0-.63-.8 5.82 5.82 0 0 1-2.7-1.58.83.83 0 0 0-1.01-.13l-.9.52a.83.83 0 1 1-.84-1.44l.9-.53a.83.83 0 0 0 .39-.94 5.88 5.88 0 0 1 0-3.13.83.83 0 0 0-.39-.94l-.9-.52a.83.83 0 1 1 .83-1.44l.9.52a.83.83 0 0 0 1.02-.13 5.82 5.82 0 0 1 2.7-1.57.83.83 0 0 0 .63-.8V4.5a.83.83 0 1 1 1.67 0v1.04a.83.83 0 0 0 .62.8c1.03.28 1.96.82 2.7 1.58a.83.83 0 0 0 1.02.13l.9-.52a.83.83 0 1 1 .84 1.44l-.9.53a.83.83 0 0 0-.4.94Z" fill="#002F34"/></svg>