<svg xmlns="http://www.w3.org/2000/svg" width="24" height="24" fill="none" viewBox="0 0 24 24">
  <path fill="url(#a)" d="M11.786 18.857a.318.318 0 0 0 .43 0c2.032-1.95 6.154-6.47 6.125-9.27a6.34 6.34 0 1 0-12.68 0c-.032 2.795 4.096 7.325 6.125 9.27ZM9.3 9.587c.144-3.58 5.26-3.579 5.402 0a2.7 2.7 0 1 1-5.402 0Zm9.607 9.041c-.024 2.826-13.787 2.826-13.811 0 0-1.013 1.785-1.622 3.804-1.913.142.172.346.392.497.563-2.504.3-3.676.95-3.676 1.35 0 .613 2.448 1.5 6.28 1.5 3.833 0 6.28-.887 6.28-1.5 0-.4-1.172-1.05-3.676-1.35l.22-.244c.093-.106.187-.213.277-.319 2.02.29 3.805.9 3.805 1.913Z"/>
  <defs>
    <linearGradient id="a" x1="5.096" x2="18.907" y1="11.998" y2="11.998" gradientUnits="userSpaceOnUse">
      <stop stop-color="#00C0FF"/>
      <stop offset="1" stop-color="#5558FF"/>
    </linearGradient>
  </defs>
</svg>
