<svg xmlns="http://www.w3.org/2000/svg" width="24px" height="24px" viewBox="0 0 1024 1024">
    <path d="M426.662 554.667l42.667 42.667v298.667l-42.667 42.667h-298.667l-42.667-42.667v-298.667l42.667-42.667h298.667zM746.667 554.667c105.856 0 192 86.123 192 192s-86.144 192-192 192c-105.856 0-192-86.123-192-192s86.144-192 192-192zM384.017 640h-213.355v213.355h213.355v-213.355zM746.667 640c-58.816 0-106.667 47.851-106.667 106.667s47.851 106.667 106.667 106.667c58.816 0 106.667-47.851 106.667-106.667s-47.851-106.667-106.667-106.667zM426.662 85.342l42.667 42.667v298.645l-42.667 42.688h-298.667l-42.667-42.688v-298.645l42.667-42.667h298.667zM895.985 85.342l42.667 42.667v298.645l-42.667 42.688h-298.645l-42.688-42.688v-298.645l42.688-42.667h298.645zM384.017 170.675h-213.355v213.333h213.355v-213.333zM853.34 170.675h-213.333v213.333h213.333v-213.333z"></path>
</svg>
