<svg width="24" height="24" viewBox="0 0 20 20" fill="none" xmlns="http://www.w3.org/2000/svg">
<path d="M15.5814 2.5H4.4186C3.35814 2.5 2.5 3.35814 2.5 4.4186V15.5814C2.5 16.6419 3.35814 17.5 4.4186 17.5H15.5814C16.6419 17.5 17.5 16.6419 17.5 15.5814V4.4186C17.5 3.35814 16.6419 2.5 15.5814 2.5ZM3.54651 4.4186C3.54651 3.93721 3.93721 3.54651 4.4186 3.54651H15.5814C16.0628 3.54651 16.4535 3.93721 16.4535 4.4186V5.2907H3.54651V4.4186ZM16.4535 15.5814C16.4535 16.0628 16.0628 16.4535 15.5814 16.4535H4.4186C3.93721 16.4535 3.54651 16.0628 3.54651 15.5814V6.33721H16.4535V15.5814ZM5.2907 8.60465C5.2907 8.3186 5.52791 8.0814 5.81395 8.0814H8.60465C8.8907 8.0814 9.12791 8.3186 9.12791 8.60465C9.12791 8.8907 8.8907 9.12791 8.60465 9.12791H5.81395C5.52791 9.12791 5.2907 8.8907 5.2907 8.60465ZM5.2907 11.3953C5.2907 11.1093 5.52791 10.8721 5.81395 10.8721H14.186C14.4721 10.8721 14.7093 11.1093 14.7093 11.3953C14.7093 11.6814 14.4721 11.9186 14.186 11.9186H5.81395C5.52791 11.9186 5.2907 11.6814 5.2907 11.3953ZM5.2907 14.186C5.2907 13.9 5.52791 13.6628 5.81395 13.6628H14.186C14.4721 13.6628 14.7093 13.9 14.7093 14.186C14.7093 14.4721 14.4721 14.7093 14.186 14.7093H5.81395C5.52791 14.7093 5.2907 14.4721 5.2907 14.186Z" fill="#002F34" stroke="#002F34" stroke-width="0.3" stroke-linejoin="bevel"/>
</svg>
