<svg xmlns="http://www.w3.org/2000/svg" width="64" height="64" fill="none" viewBox="0 0 64 64">
  <path fill="#3A77FF" d="M0 0h64v64H0z"/>
  <path fill="#1D3C81" fill-rule="evenodd" d="M10.057 64h44.04V45.984h-44.04V64Z" clip-rule="evenodd"/>
  <path fill="#F2F4F5" fill-rule="evenodd" d="M48.834 31.877c0 9.352-7.582 16.933-16.934 16.933s-16.933-7.58-16.933-16.934c0-9.352 7.581-16.933 16.933-16.933s16.934 7.581 16.934 16.934Z" clip-rule="evenodd"/>
  <path fill="#002F34" fill-rule="evenodd" d="M41.323 33.816a1.116 1.116 0 1 1 0-2.231 1.116 1.116 0 0 1 0 2.231Zm0-4.797a3.682 3.682 0 1 0 0 7.363 3.682 3.682 0 0 0 0-7.363Zm-13.21 5.039h7.357v-2.682h-7.357v2.682Z" clip-rule="evenodd"/>
  <path fill="#002F34" d="m40.715 25.853-.006-.005c-3.682 4.401-10.218 5.13-14.786 1.58a10.7 10.7 0 0 1-.647-.545 6.943 6.943 0 0 1-4.782 3.184v.004l-.216.027-.038.005-.038.005-6.865.861-.863-6.881-.003-.021-.002-.022-.03-.233h.005a6.957 6.957 0 0 1 9.566-7.05 10.672 10.672 0 0 1 2.027-4.369c3.55-4.568 10.062-5.477 14.718-2.123l.004-.005 8.772 6.816-6.816 8.772Z"/>
</svg>
